<?xml version="1.0" standalone="no"?><!DOCTYPE svg PUBLIC "-//W3C//DTD SVG 1.1//EN" "http://www.w3.org/Graphics/SVG/1.1/DTD/svg11.dtd"><svg t="1698743962188" class="icon" viewBox="0 0 1024 1024" version="1.1" xmlns="http://www.w3.org/2000/svg" p-id="1216" width="16" height="16" xmlns:xlink="http://www.w3.org/1999/xlink"><path d="M512 89.56416c-233.27232 0-422.22592 189.056-422.22592 422.43584 0 233.39008 188.95872 422.43584 422.22592 422.43584 233.2672 0 422.2208-189.04576 422.2208-422.43584 0.00512-233.37984-188.94848-422.43584-422.2208-422.43584z m202.09152 456.448l-251.79136 173.3376c-7.02976 4.6848-15.23712 7.26528-23.43936 7.26528-6.56384 0-14.9248-1.64352-20.78208-4.6848-13.60384-7.27552-23.8336-21.35552-23.8336-36.58752v-346.6752c0-15.24736 10.23488-29.32224 23.8336-36.352 13.35808-7.27552 30.6688-6.10304 43.32032 2.57536l252.24192 173.33248a40.59136 40.59136 0 0 1 18.03776 33.77664c0 13.59872-6.33856 26.2656-17.5872 34.01216z" fill="#8a8a8a" p-id="1217"></path></svg>